<svg xmlns="http://www.w3.org/2000/svg" viewBox="0 0 400 400" role="img">
  <defs>
    <radialGradient id="bake-the-cartel-tin-cookie" cx="42%" cy="36%" r="72%">
      <stop offset="0%" stop-color="#E9B86E"/>
      <stop offset="58%" stop-color="#CB8F45"/>
      <stop offset="100%" stop-color="#94602A"/>
    </radialGradient>
    <radialGradient id="oozeShade-the-cartel-tin-cookie" cx="38%" cy="30%" r="70%">
      <stop offset="0%" stop-color="#fff" stop-opacity=".35"/>
      <stop offset="65%" stop-color="#000" stop-opacity="0"/>
      <stop offset="100%" stop-color="#000" stop-opacity=".45"/>
    </radialGradient>
    <filter id="soft-the-cartel-tin-cookie" x="-25%" y="-25%" width="150%" height="150%">
      <feGaussianBlur stdDeviation="9"/>
    </filter>
  </defs>
  <circle cx="381.61" cy="212.35" r="3.42" fill="#94602A" opacity="0.7237673796596937"/><circle cx="219.28" cy="20.45" r="4.24" fill="#94602A" opacity="0.37744343786034734"/><circle cx="51.19" cy="262.67" r="3.3" fill="#94602A" opacity="0.5300854642060585"/><circle cx="250.1" cy="350.55" r="3.39" fill="#94602A" opacity="0.6378423605114222"/><circle cx="36.83" cy="145.85" r="4.4" fill="#94602A" opacity="0.5049733292427845"/><circle cx="343.35" cy="282.98" r="1.77" fill="#94602A" opacity="0.5793161809444427"/><circle cx="352.49" cy="145.06" r="2.13" fill="#94602A" opacity="0.5784172757877968"/><circle cx="346.68" cy="126.41" r="3.8" fill="#94602A" opacity="0.3338194533716887"/><circle cx="80.84" cy="97.52" r="2.7" fill="#94602A" opacity="0.7245386993628926"/><circle cx="367.67" cy="250.31" r="1.65" fill="#94602A" opacity="0.5529192308778874"/><circle cx="341.52" cy="274.95" r="2.27" fill="#94602A" opacity="0.4544783170334995"/><circle cx="194.69" cy="47.04" r="3.13" fill="#94602A" opacity="0.4748540652450174"/><circle cx="366.14" cy="146.55" r="2.69" fill="#94602A" opacity="0.3704459420987405"/><circle cx="360.9" cy="183.35" r="3.2" fill="#94602A" opacity="0.6629404060193338"/><circle cx="207.97" cy="356.87" r="3.79" fill="#94602A" opacity="0.5717620396404527"/><circle cx="114.7" cy="360" r="4.43" fill="#94602A" opacity="0.3347990025999024"/>
  <path d="M 353.1 200 Q 353.1 200 343.46 227.71 Q 333.82 255.43 321.82 282.62 Q 309.82 309.82 282.68 321.95 Q 255.54 334.08 227.77 344.19 Q 200 354.29 170.87 347.46 Q 141.75 340.63 116.2 324.99 Q 90.66 309.34 75.8 283.47 Q 60.94 257.6 55.05 228.8 Q 49.17 200 54.88 171.13 Q 60.58 142.25 78.06 118.9 Q 95.54 95.54 120.16 81.12 Q 144.78 66.69 172.39 59.59 Q 200 52.48 228.21 58.15 Q 256.41 63.81 280.74 79.37 Q 305.06 94.94 323.07 118.25 Q 341.09 141.56 347.09 170.78 Z" transform="translate(7 13)" fill="#000" opacity=".38" filter="url(#soft-the-cartel-tin-cookie)"/>
  <path d="M 353.1 200 Q 353.1 200 343.46 227.71 Q 333.82 255.43 321.82 282.62 Q 309.82 309.82 282.68 321.95 Q 255.54 334.08 227.77 344.19 Q 200 354.29 170.87 347.46 Q 141.75 340.63 116.2 324.99 Q 90.66 309.34 75.8 283.47 Q 60.94 257.6 55.05 228.8 Q 49.17 200 54.88 171.13 Q 60.58 142.25 78.06 118.9 Q 95.54 95.54 120.16 81.12 Q 144.78 66.69 172.39 59.59 Q 200 52.48 228.21 58.15 Q 256.41 63.81 280.74 79.37 Q 305.06 94.94 323.07 118.25 Q 341.09 141.56 347.09 170.78 Z" fill="#94602A"/>
  <path d="M 344.33 200 Q 344.33 200 333.08 227.12 Q 321.82 254.24 305.7 276.87 Q 289.58 299.49 266.47 316.47 Q 243.36 333.44 214.62 333.92 Q 185.87 334.4 159.46 325.19 Q 133.04 315.97 109.37 299.51 Q 85.7 283.04 72.23 256.53 Q 58.75 230.02 62.94 200.89 Q 67.13 171.76 76 144.06 Q 84.88 116.36 109.66 101.4 Q 134.44 86.44 160.31 77.53 Q 186.19 68.61 213.45 71.67 Q 240.71 74.72 265.61 87.1 Q 290.51 99.48 305.34 122.99 Q 320.17 146.5 332.25 173.25 Z" fill="url(#bake-the-cartel-tin-cookie)"/>
  <path d="M 318.31 200 Q 318.31 200 310.47 224.71 Q 302.62 249.42 286.3 268.58 Q 269.97 287.74 247.65 299.35 Q 225.33 310.97 200.94 306.85 Q 176.55 302.73 154.92 293.19 Q 133.29 283.65 113.77 267.29 Q 94.24 250.93 90.92 225.46 Q 87.59 200 95.03 176.51 Q 102.46 153.03 116.13 132.5 Q 129.81 111.98 152.5 101.66 Q 175.2 91.33 200.45 89.35 Q 225.71 87.36 247.58 100.14 Q 269.45 112.92 286.81 131.37 Q 304.18 149.83 311.25 174.91 Z" fill="#E9B86E" opacity=".34"/>
  <path d="M 271.87 203.24
      Q 299.2 226.93 333.51 206.02"
      stroke="#94602A" stroke-width="4.33" fill="none" stroke-linecap="round" opacity=".7"/><path d="M 237.85 258.01
      Q 233.53 289.57 266.69 302.19"
      stroke="#94602A" stroke-width="6.05" fill="none" stroke-linecap="round" opacity=".7"/><path d="M 166.97 267.5
      Q 134.05 282.38 140.27 322.07"
      stroke="#94602A" stroke-width="5" fill="none" stroke-linecap="round" opacity=".7"/><path d="M 140.99 236.33
      Q 105.43 232.59 88.66 268.56"
      stroke="#94602A" stroke-width="3.67" fill="none" stroke-linecap="round" opacity=".7"/><path d="M 134.82 159.63
      Q 130.86 132.35 100.71 138.51"
      stroke="#94602A" stroke-width="6.48" fill="none" stroke-linecap="round" opacity=".7"/><path d="M 193.63 133.96
      Q 212.37 100.67 187.15 66.78"
      stroke="#94602A" stroke-width="5.62" fill="none" stroke-linecap="round" opacity=".7"/><path d="M 229.57 133.63
      Q 259.21 120.32 251.23 85.01"
      stroke="#94602A" stroke-width="6.31" fill="none" stroke-linecap="round" opacity=".7"/>
  <path d="M 260.75 204 Q 260.75 204 257.79 219.83 Q 254.83 235.65 244.13 248.78 Q 233.43 261.9 216.71 259.41 Q 200 256.93 183.46 259.12 Q 166.92 261.3 154.73 249.24 Q 142.54 237.17 136.69 220.59 Q 130.84 204 141.16 189.99 Q 151.48 175.99 159.34 161.59 Q 167.2 147.18 183.6 140.82 Q 200 134.46 217.02 139.75 Q 234.04 145.05 242.54 159.79 Q 251.04 174.53 255.89 189.27 Z" fill="#7A4A1E"/><path d="M 260.75 204 Q 260.75 204 257.79 219.83 Q 254.83 235.65 244.13 248.78 Q 233.43 261.9 216.71 259.41 Q 200 256.93 183.46 259.12 Q 166.92 261.3 154.73 249.24 Q 142.54 237.17 136.69 220.59 Q 130.84 204 141.16 189.99 Q 151.48 175.99 159.34 161.59 Q 167.2 147.18 183.6 140.82 Q 200 134.46 217.02 139.75 Q 234.04 145.05 242.54 159.79 Q 251.04 174.53 255.89 189.27 Z" fill="url(#oozeShade-the-cartel-tin-cookie)" opacity=".55"/><path d="M 217.24 190 Q 217.24 190 216.08 199.78 Q 214.91 209.55 205.44 212.03 Q 195.96 214.51 186.62 218.77 Q 177.27 223.04 168.41 216.85 Q 159.55 210.67 156.95 200.34 Q 154.36 190 160.24 182.05 Q 166.12 174.11 172.35 167.55 Q 178.58 161 188.16 160.49 Q 197.75 159.98 203.63 167.18 Q 209.5 174.38 213.37 182.19 Z" fill="#C08A46" opacity=".65"/>
  <g transform="translate(303.41 287.5) rotate(115.74)">
    <path d="M -10.150984730571508 -7.308709006011486 L 8.729846868291498 -10.150984730571508 L 10.150984730571508 7.105689311400055 L -8.120787784457207 9.135886257514358 Z" fill="#9A6326"/>
    <path d="M -8.323807479068636 -5.5830416018143305 L 7.105689311400055 -8.120787784457207 L 8.120787784457207 4.263413586840033 L -6.293610532954335 6.090590838342905 Z" fill="#C88A3E"/>
  </g><g transform="translate(276.16 165.85) rotate(142.85)">
    <path d="M -15.58227132447064 -11.21923535361886 L 13.40075333904475 -15.58227132447064 L 15.58227132447064 10.907589927129447 L -12.465817059576512 14.024044192023576 Z" fill="#9A6326"/>
    <path d="M -12.777462486065923 -8.570249228458852 L 10.907589927129447 -12.465817059576512 L 12.465817059576512 6.544553956277668 L -9.661008221171796 9.349362794682383 Z" fill="#C88A3E"/>
  </g><g transform="translate(130.58 284.12) rotate(139.14)">
    <path d="M -16.516050033271313 -11.891556023955344 L 14.20380302861333 -16.516050033271313 L 16.516050033271313 11.561235023289917 L -13.212840026617052 14.864445029944182 Z" fill="#27140A"/>
    <path d="M -13.543161027282476 -9.083827518299223 L 11.561235023289917 -13.212840026617052 L 13.212840026617052 6.936741013973951 L -10.239951020628213 9.909630019962787 Z" fill="#4A2C18"/>
  </g><g transform="translate(86.47 158.32) rotate(182.22)">
    <path d="M -16.989873265847564 -12.232708751410245 L 14.611291008628905 -16.989873265847564 L 16.989873265847564 11.892911286093295 L -13.591898612678051 15.290885939262807 Z" fill="#9A6326"/>
    <path d="M -13.931696077995001 -9.34443029621616 L 11.892911286093295 -13.591898612678051 L 13.591898612678051 7.135746771655977 L -10.53372142482549 10.193923959508538 Z" fill="#C88A3E"/>
  </g><g transform="translate(210.01 311.01) rotate(15.87)">
    <path d="M -11.53919418528676 -8.308219813406467 L 9.923706999346614 -11.53919418528676 L 11.53919418528676 8.077435929700732 L -9.231355348229409 10.385274766758085 Z" fill="#27140A"/>
    <path d="M -9.462139231935144 -6.3465568019077185 L 8.077435929700732 -9.231355348229409 L 9.231355348229409 4.846461557820439 L -7.154300394877791 6.923516511172056 Z" fill="#4A2C18"/>
  </g><g transform="translate(302.34 230.46) rotate(123.21)">
    <path d="M -11.653116835281253 -8.390244121402501 L 10.021680478341878 -11.653116835281253 L 11.653116835281253 8.157181784696876 L -9.322493468225003 10.487805151753127 Z" fill="#27140A"/>
    <path d="M -9.555555804930627 -6.409214259404689 L 8.157181784696876 -9.322493468225003 L 9.322493468225003 4.894309070818126 L -7.224932437874377 6.991870101168751 Z" fill="#4A2C18"/>
  </g><g transform="translate(191 126) rotate(267.57)">
    <path d="M -16.22474998794496 -11.68181999132037 L 13.953284989632666 -16.22474998794496 L 16.22474998794496 11.357324991561471 L -12.97979999035597 14.602274989150464 Z" fill="#27140A"/>
    <path d="M -13.304294990114867 -8.92361249336973 L 11.357324991561471 -12.97979999035597 L 12.97979999035597 6.814394994936883 L -10.059344992525876 9.734849992766977 Z" fill="#4A2C18"/>
  </g><g transform="translate(131.66 92.55) rotate(26.12)">
    <path d="M -13.362662304192781 -9.621116859018802 L 11.491889581605792 -13.362662304192781 L 13.362662304192781 9.353863612934946 L -10.690129843354226 12.026396073773503 Z" fill="#27140A"/>
    <path d="M -10.95738308943808 -7.34946426730603 L 9.353863612934946 -10.690129843354226 L 10.690129843354226 5.612318167760968 L -8.284850628599525 8.01759738251567 Z" fill="#4A2C18"/>
  </g><g transform="translate(90.41 210.53) rotate(169.14)">
    <path d="M -10.635419584810734 -7.657502101063728 L 9.14646084293723 -10.635419584810734 L 10.635419584810734 7.444793709367513 L -8.508335667848588 9.57187762632966 Z" fill="#27140A"/>
    <path d="M -8.721044059544802 -5.849480771645904 L 7.444793709367513 -8.508335667848588 L 8.508335667848588 4.466876225620508 L -6.593960142582655 6.38125175088644 Z" fill="#4A2C18"/>
  </g><g transform="translate(67.22 178.43) rotate(131.69)">
    <path d="M -16.421590115875006 -11.823544883430003 L 14.122567499652504 -16.421590115875006 L 16.421590115875006 11.495113081112503 L -13.137272092700005 14.779431104287506 Z" fill="#27140A"/>
    <path d="M -13.465703895017503 -9.031874563731254 L 11.495113081112503 -13.137272092700005 L 13.137272092700005 6.897067848667502 L -10.181385871842503 9.852954069525003 Z" fill="#4A2C18"/>
  </g><g transform="translate(249.03 303.01) rotate(327.3)">
    <path d="M -12.324368678033352 -8.873545448184013 L 10.598957063108683 -12.324368678033352 L 12.324368678033352 8.627058074623346 L -9.859494942426682 11.091931810230017 Z" fill="#27140A"/>
    <path d="M -10.105982315987347 -6.778402772918344 L 8.627058074623346 -9.859494942426682 L 9.859494942426682 5.176234844774007 L -7.641108580380678 7.394621206820011 Z" fill="#4A2C18"/>
  </g><g transform="translate(316.73 254.35) rotate(214.75)">
    <path d="M -11.269822131842375 -8.11427193492651 L 9.692047033384442 -11.269822131842375 L 11.269822131842375 7.888875492289662 L -9.0158577054739 10.142839918658138 Z" fill="#9A6326"/>
    <path d="M -9.241254148110746 -6.1984021725133065 L 7.888875492289662 -9.0158577054739 L 9.0158577054739 4.733325295373797 L -6.987289721742273 6.761893279105425 Z" fill="#C88A3E"/>
  </g><g transform="translate(267.94 138.16) rotate(241.47)">
    <path d="M -9.629565181210637 -6.933286930471659 L 8.281426055841148 -9.629565181210637 L 9.629565181210637 6.740695626847446 L -7.70365214496851 8.666608663089574 Z" fill="#9A6326"/>
    <path d="M -7.896243448592722 -5.296260849665851 L 6.740695626847446 -7.70365214496851 L 7.70365214496851 4.044417376108467 L -5.970330412350595 5.777739108726382 Z" fill="#C88A3E"/>
  </g><g transform="translate(272.12 96) rotate(2.48)">
    <path d="M -16.28732216730714 -11.726871960461139 L 14.007097063884139 -16.28732216730714 L 16.28732216730714 11.401125517114997 L -13.029857733845711 14.658589950576426 Z" fill="#9A6326"/>
    <path d="M -13.355604177191852 -8.958027192018926 L 11.401125517114997 -13.029857733845711 L 13.029857733845711 6.840675310268998 L -10.098139743730426 9.772393300384282 Z" fill="#C88A3E"/>
  </g><g transform="translate(97.85 282.23) rotate(50.17)">
    <path d="M -10.884842144325376 -7.83708634391427 L 9.360964244119822 -10.884842144325376 L 10.884842144325376 7.619389501027762 L -8.7078737154603 9.796357929892839 Z" fill="#27140A"/>
    <path d="M -8.925570558346807 -5.986663179378957 L 7.619389501027762 -8.7078737154603 L 8.7078737154603 4.571633700616657 L -6.748602129481733 6.5309052865952255 Z" fill="#4A2C18"/>
  </g><g transform="translate(121.27 168.48) rotate(268.18)">
    <path d="M -16.637718418613076 -11.979157261401415 L 14.308437840007246 -16.637718418613076 L 16.637718418613076 11.646402893029153 L -13.310174734890461 14.97394657675177 Z" fill="#9A6326"/>
    <path d="M -13.642929103262722 -9.150745130237192 L 11.646402893029153 -13.310174734890461 L 13.310174734890461 6.987841735817492 L -10.315385419540107 9.982631051167845 Z" fill="#C88A3E"/>
  </g><g transform="translate(305.21 122.34) rotate(261.13)">
    <path d="M -11.476182635873556 -8.26285149782896 L 9.869517066851259 -11.476182635873556 L 11.476182635873556 8.033327845111488 L -9.180946108698846 10.3285643722862 Z" fill="#27140A"/>
    <path d="M -9.410469761416316 -6.311900449730456 L 8.033327845111488 -9.180946108698846 L 9.180946108698846 4.819996707066894 L -7.115233234241605 6.885709581524133 Z" fill="#4A2C18"/>
  </g><g transform="translate(272.45 162.08) rotate(322.75)">
    <path d="M -13.280346082523465 -9.561849179416894 L 11.42109763097018 -13.280346082523465 L 13.280346082523465 9.296242257766425 L -10.624276866018773 11.952311474271118 Z" fill="#27140A"/>
    <path d="M -10.889883787669241 -7.304190345387906 L 9.296242257766425 -10.624276866018773 L 10.624276866018773 5.577745354659855 L -8.23381457116455 7.968207649514079 Z" fill="#4A2C18"/>
  </g><g transform="translate(334.51 238.71) rotate(84.44)">
    <path d="M -15.514117090031505 -11.170164304822682 L 13.342140697427094 -15.514117090031505 L 15.514117090031505 10.859881963022053 L -12.411293672025204 13.962705381028355 Z" fill="#9A6326"/>
    <path d="M -12.721576013825834 -8.532764399517328 L 10.859881963022053 -12.411293672025204 L 12.411293672025204 6.5159291778132316 L -9.618752595819533 9.308470254018902 Z" fill="#C88A3E"/>
  </g><g transform="translate(117.75 250.4) rotate(99.5)">
    <path d="M -14.698500644415617 -10.582920463979244 L 12.64071055419743 -14.698500644415617 L 14.698500644415617 10.288950451090932 L -11.758800515532494 13.228650579974056 Z" fill="#9A6326"/>
    <path d="M -12.052770528420805 -8.08417535442859 L 10.288950451090932 -11.758800515532494 L 11.758800515532494 6.173370270654559 L -9.113070399537682 8.81910038664937 Z" fill="#C88A3E"/>
  </g><g transform="translate(113.54 286.85) rotate(338.61)">
    <path d="M -9.747954983264208 -7.01852758795023 L 8.383241285607218 -9.747954983264208 L 9.747954983264208 6.823568488284945 L -7.798363986611367 8.773159484937787 Z" fill="#9A6326"/>
    <path d="M -7.99332308627665 -5.361375240795315 L 6.823568488284945 -7.798363986611367 L 7.798363986611367 4.094141092970967 L -6.043732089623809 5.848772989958524 Z" fill="#C88A3E"/>
  </g><g transform="translate(71.54 207.7) rotate(51.14)">
    <path d="M -15.18423399887979 -10.932648479193448 L 13.05844123903662 -15.18423399887979 L 15.18423399887979 10.628963799215853 L -12.147387199103832 13.665810598991811 Z" fill="#27140A"/>
    <path d="M -12.451071879081427 -8.351328699383885 L 10.628963799215853 -12.147387199103832 L 12.147387199103832 6.377378279529512 L -9.41422507930547 9.110540399327874 Z" fill="#4A2C18"/>
  </g>
  <path d="M 299.67 261.25 L 302.45 264.73 L 299.67 268.21 L 296.88 264.73 Z"
    fill="#FFFDF5" opacity=".92" transform="rotate(88.96 299.67 264.73)"/><path d="M 107.07 218.08 L 110.34 222.18 L 107.07 226.28 L 103.79 222.18 Z"
    fill="#FFFDF5" opacity=".92" transform="rotate(89.93 107.07 222.18)"/><path d="M 228.51 109.83 L 231.44 113.5 L 228.51 117.17 L 225.57 113.5 Z"
    fill="#FFFDF5" opacity=".92" transform="rotate(56.07 228.51 113.5)"/><path d="M 114.48 161.08 L 118.01 165.49 L 114.48 169.9 L 110.96 165.49 Z"
    fill="#FFFDF5" opacity=".92" transform="rotate(2.07 114.48 165.49)"/><path d="M 84.41 116.17 L 88.34 121.09 L 84.41 126.01 L 80.48 121.09 Z"
    fill="#FFFDF5" opacity=".92" transform="rotate(11.96 84.41 121.09)"/><path d="M 189.24 245.58 L 192.07 249.11 L 189.24 252.64 L 186.42 249.11 Z"
    fill="#FFFDF5" opacity=".92" transform="rotate(32.97 189.24 249.11)"/><path d="M 183.25 254.12 L 185.71 257.2 L 183.25 260.27 L 180.79 257.2 Z"
    fill="#FFFDF5" opacity=".92" transform="rotate(24.67 183.25 257.2)"/><path d="M 247.06 184.88 L 250.12 188.71 L 247.06 192.54 L 244 188.71 Z"
    fill="#FFFDF5" opacity=".92" transform="rotate(70.68 247.06 188.71)"/><path d="M 167.91 160.41 L 171.11 164.41 L 167.91 168.4 L 164.71 164.41 Z"
    fill="#FFFDF5" opacity=".92" transform="rotate(19.24 167.91 164.41)"/><path d="M 153.46 120.85 L 156.44 124.57 L 153.46 128.29 L 150.48 124.57 Z"
    fill="#FFFDF5" opacity=".92" transform="rotate(21.09 153.46 124.57)"/><path d="M 169.39 77.57 L 171.6 80.33 L 169.39 83.1 L 167.18 80.33 Z"
    fill="#FFFDF5" opacity=".92" transform="rotate(32.24 169.39 80.33)"/><path d="M 301.21 203.32 L 304.69 207.67 L 301.21 212.03 L 297.73 207.67 Z"
    fill="#FFFDF5" opacity=".92" transform="rotate(4.32 301.21 207.67)"/><path d="M 158.15 318.52 L 161.99 323.31 L 158.15 328.11 L 154.32 323.31 Z"
    fill="#FFFDF5" opacity=".92" transform="rotate(34.44 158.15 323.31)"/><path d="M 237.35 329.77 L 240.4 333.58 L 237.35 337.38 L 234.31 333.58 Z"
    fill="#FFFDF5" opacity=".92" transform="rotate(75.05 237.35 333.58)"/><g transform="translate(113.19 253.31) rotate(57.77)" opacity=".95">
        <rect x="-13.2" y="-9.24" width="26.41" height="18.49" rx="2" fill="#C88A3E"/>
        <path d="M -13.2 0 H 13.2 M 0 -9.24 V 9.24" stroke="#9A6326" stroke-width="2.4"/></g><g transform="translate(91.65 282.94) rotate(293.26)" opacity=".95">
        <rect x="-15.12" y="-10.58" width="30.23" height="21.16" rx="2" fill="#C88A3E"/>
        <path d="M -15.12 0 H 15.12 M 0 -10.58 V 10.58" stroke="#9A6326" stroke-width="2.4"/></g><g transform="translate(115.78 107.7) rotate(71)" opacity=".95">
        <rect x="-14.13" y="-9.89" width="28.25" height="19.78" rx="2" fill="#C88A3E"/>
        <path d="M -14.13 0 H 14.13 M 0 -9.89 V 9.89" stroke="#9A6326" stroke-width="2.4"/></g><g transform="translate(200.55 134.63) rotate(276.51)" opacity=".95">
        <rect x="-15.81" y="-11.07" width="31.62" height="22.13" rx="2" fill="#C88A3E"/>
        <path d="M -15.81 0 H 15.81 M 0 -11.07 V 11.07" stroke="#9A6326" stroke-width="2.4"/></g><g transform="translate(191.86 139.75) rotate(218.52)" opacity=".95">
        <rect x="-12.1" y="-8.47" width="24.2" height="16.94" rx="2" fill="#C88A3E"/>
        <path d="M -12.1 0 H 12.1 M 0 -8.47 V 8.47" stroke="#9A6326" stroke-width="2.4"/></g><g transform="translate(130.47 112.83) rotate(260.38)" opacity=".95">
        <rect x="-12.12" y="-8.49" width="24.24" height="16.97" rx="2" fill="#C88A3E"/>
        <path d="M -12.12 0 H 12.12 M 0 -8.49 V 8.49" stroke="#9A6326" stroke-width="2.4"/></g><g transform="translate(83.2 196.44) rotate(84.75)" opacity=".95">
        <rect x="-11.69" y="-8.18" width="23.37" height="16.36" rx="2" fill="#C88A3E"/>
        <path d="M -11.69 0 H 11.69 M 0 -8.18 V 8.18" stroke="#9A6326" stroke-width="2.4"/></g><g transform="translate(291.99 257.83) rotate(31.98)" opacity=".95">
        <rect x="-13.74" y="-9.62" width="27.47" height="19.23" rx="2" fill="#C88A3E"/>
        <path d="M -13.74 0 H 13.74 M 0 -9.62 V 9.62" stroke="#9A6326" stroke-width="2.4"/></g><g transform="translate(64.01 183.77) rotate(233.09)" opacity=".95">
        <rect x="-12.42" y="-8.69" width="24.83" height="17.38" rx="2" fill="#C88A3E"/>
        <path d="M -12.42 0 H 12.42 M 0 -8.69 V 8.69" stroke="#9A6326" stroke-width="2.4"/></g><g transform="translate(276.16 183.55) rotate(334.81)" opacity=".95">
        <rect x="-12.66" y="-8.86" width="25.32" height="17.73" rx="2" fill="#C88A3E"/>
        <path d="M -12.66 0 H 12.66 M 0 -8.86 V 8.86" stroke="#9A6326" stroke-width="2.4"/></g>
</svg>