<svg xmlns="http://www.w3.org/2000/svg" viewBox="0 0 400 400" role="img">
  <defs>
    <radialGradient id="bake-the-brookie" cx="42%" cy="36%" r="72%">
      <stop offset="0%" stop-color="#4A2B18"/>
      <stop offset="58%" stop-color="#2E1809"/>
      <stop offset="100%" stop-color="#190C04"/>
    </radialGradient>
    <radialGradient id="oozeShade-the-brookie" cx="38%" cy="30%" r="70%">
      <stop offset="0%" stop-color="#fff" stop-opacity=".35"/>
      <stop offset="65%" stop-color="#000" stop-opacity="0"/>
      <stop offset="100%" stop-color="#000" stop-opacity=".45"/>
    </radialGradient>
    <filter id="soft-the-brookie" x="-25%" y="-25%" width="150%" height="150%">
      <feGaussianBlur stdDeviation="9"/>
    </filter>
  </defs>
  <circle cx="328.11" cy="65.75" r="3.27" fill="#190C04" opacity="0.7447790808859281"/><circle cx="260.8" cy="359.76" r="2.64" fill="#190C04" opacity="0.7012573290034197"/><circle cx="51.7" cy="137.11" r="4.1" fill="#190C04" opacity="0.5926123350625858"/><circle cx="177" cy="22.4" r="3" fill="#190C04" opacity="0.39145869672065603"/><circle cx="258.32" cy="36.59" r="2.13" fill="#190C04" opacity="0.6179149250965565"/><circle cx="36.95" cy="181.14" r="4.17" fill="#190C04" opacity="0.6029615803970956"/><circle cx="358.01" cy="141.82" r="3.71" fill="#190C04" opacity="0.6621018571662717"/><circle cx="266.62" cy="361.27" r="1.83" fill="#190C04" opacity="0.7469416214386001"/><circle cx="228.06" cy="372.84" r="3.95" fill="#190C04" opacity="0.600457470479887"/><circle cx="37.2" cy="234.13" r="3.21" fill="#190C04" opacity="0.4168326434679329"/><circle cx="319.76" cy="329.58" r="1.69" fill="#190C04" opacity="0.5123068369575776"/><circle cx="200.35" cy="372.98" r="1.91" fill="#190C04" opacity="0.3734347953926772"/><circle cx="335.27" cy="298.16" r="2.85" fill="#190C04" opacity="0.5497465322725474"/><circle cx="277.24" cy="65.56" r="2.41" fill="#190C04" opacity="0.6384614084847271"/><circle cx="86.15" cy="320.56" r="3.26" fill="#190C04" opacity="0.33011633693240583"/><circle cx="32.76" cy="213.97" r="2.56" fill="#190C04" opacity="0.7013310274109245"/>
  <path d="M 346.43 200 Q 346.43 200 343.07 228.94 Q 339.72 257.87 323.49 282.57 Q 307.26 307.26 280.96 319.61 Q 254.66 331.95 227.33 340.19 Q 200 348.44 170.3 345.93 Q 140.6 343.41 119.38 322.62 Q 98.17 301.83 82.21 278.61 Q 66.26 255.4 57.77 227.7 Q 49.29 200 57.31 172.11 Q 65.33 144.22 78.43 117.87 Q 91.53 91.53 115.93 73.73 Q 140.33 55.93 170.16 54.31 Q 200 52.69 228.27 58.1 Q 256.53 63.52 284.14 75.89 Q 311.74 88.26 326.85 114.73 Q 341.96 141.2 344.19 170.6 Z" transform="translate(7 13)" fill="#000" opacity=".38" filter="url(#soft-the-brookie)"/>
  <path d="M 346.43 200 Q 346.43 200 343.07 228.94 Q 339.72 257.87 323.49 282.57 Q 307.26 307.26 280.96 319.61 Q 254.66 331.95 227.33 340.19 Q 200 348.44 170.3 345.93 Q 140.6 343.41 119.38 322.62 Q 98.17 301.83 82.21 278.61 Q 66.26 255.4 57.77 227.7 Q 49.29 200 57.31 172.11 Q 65.33 144.22 78.43 117.87 Q 91.53 91.53 115.93 73.73 Q 140.33 55.93 170.16 54.31 Q 200 52.69 228.27 58.1 Q 256.53 63.52 284.14 75.89 Q 311.74 88.26 326.85 114.73 Q 341.96 141.2 344.19 170.6 Z" fill="#190C04"/>
  <path d="M 335.35 200 Q 335.35 200 328.52 227.09 Q 321.69 254.18 307.76 279.2 Q 293.83 304.21 267.48 315.4 Q 241.13 326.59 213.26 332.78 Q 185.39 338.97 159.23 327.45 Q 133.07 315.93 108.86 299.86 Q 84.66 283.8 76.13 255.97 Q 67.6 228.14 67.56 199.99 Q 67.53 171.84 78.89 146.05 Q 90.25 120.26 111.12 101.24 Q 132 82.22 158.43 69.08 Q 184.86 55.94 213.37 63.51 Q 241.89 71.08 266.03 85.47 Q 290.17 99.86 306.07 122.78 Q 321.97 145.7 328.66 172.85 Z" fill="url(#bake-the-brookie)"/>
  <path d="M 315.84 200 Q 315.84 200 310.68 225.41 Q 305.52 250.81 285.76 266.78 Q 266 282.76 245.71 297.08 Q 225.43 311.41 199.6 313.18 Q 173.77 314.94 151.02 302.45 Q 128.27 289.95 113.92 269.15 Q 99.58 248.36 92.14 224.18 Q 84.7 200 92.84 176.16 Q 100.97 152.31 115.82 132.69 Q 130.68 113.07 152.45 100.06 Q 174.22 87.06 200.1 86.61 Q 225.98 86.17 247.04 100.39 Q 268.1 114.61 284.56 132.98 Q 301.03 151.35 308.44 175.67 Z" fill="#4A2B18" opacity=".34"/>
  <path d="M 267 188.14
      Q 291.7 204.11 313.77 179.86"
      stroke="#190C04" stroke-width="6.54" fill="none" stroke-linecap="round" opacity=".7"/><path d="M 237.39 259.56
      Q 230.63 286.42 260.11 295.75"
      stroke="#190C04" stroke-width="3.24" fill="none" stroke-linecap="round" opacity=".7"/><path d="M 175.17 261.88
      Q 146.17 278.42 153.99 314.66"
      stroke="#190C04" stroke-width="6.95" fill="none" stroke-linecap="round" opacity=".7"/><path d="M 146.62 239.86
      Q 109.13 240.74 93.81 279.3"
      stroke="#190C04" stroke-width="4.57" fill="none" stroke-linecap="round" opacity=".7"/><path d="M 141.33 155.11
      Q 139.15 127.41 108.22 129.77"
      stroke="#190C04" stroke-width="5.95" fill="none" stroke-linecap="round" opacity=".7"/><path d="M 188.97 129.88
      Q 205.87 108.49 182.54 88.95"
      stroke="#190C04" stroke-width="6.17" fill="none" stroke-linecap="round" opacity=".7"/><path d="M 250.41 156.1
      Q 282.29 155.42 290.75 120.97"
      stroke="#190C04" stroke-width="4.63" fill="none" stroke-linecap="round" opacity=".7"/>
  <path d="M 263.01 204 Q 263.01 204 259.61 220.23 Q 256.21 236.45 244.59 248.78 Q 232.97 261.11 216.49 261.15 Q 200 261.2 182.4 263.08 Q 164.81 264.96 154.03 250.86 Q 143.25 236.76 140.47 220.38 Q 137.68 204 141.05 187.95 Q 144.42 171.91 157.44 162.38 Q 170.46 152.84 185.23 147.36 Q 200 141.87 217.62 142.41 Q 235.25 142.95 247.49 156.23 Q 259.74 169.51 261.38 186.75 Z" fill="#3B2110"/><path d="M 263.01 204 Q 263.01 204 259.61 220.23 Q 256.21 236.45 244.59 248.78 Q 232.97 261.11 216.49 261.15 Q 200 261.2 182.4 263.08 Q 164.81 264.96 154.03 250.86 Q 143.25 236.76 140.47 220.38 Q 137.68 204 141.05 187.95 Q 144.42 171.91 157.44 162.38 Q 170.46 152.84 185.23 147.36 Q 200 141.87 217.62 142.41 Q 235.25 142.95 247.49 156.23 Q 259.74 169.51 261.38 186.75 Z" fill="url(#oozeShade-the-brookie)" opacity=".55"/><path d="M 216.42 190 Q 216.42 190 212.86 197.74 Q 209.31 205.49 203.89 213.84 Q 198.46 222.19 189.45 217.71 Q 180.45 213.23 171.81 210.63 Q 163.18 208.03 160.51 199.02 Q 157.83 190 161.83 181.95 Q 165.84 173.9 171.73 165.99 Q 177.63 158.09 186.75 161.93 Q 195.87 165.78 203.79 169.28 Q 211.71 172.77 214.06 181.39 Z" fill="#8A5628" opacity=".65"/>
  <g transform="translate(173.46 65.87) rotate(255.32)">
    <path d="M -9.342273462563753 -6.726436893045902 L 8.034355177804828 -9.342273462563753 L 9.342273462563753 6.539591423794627 L -7.473818770051003 8.408046116307379 Z" fill="#22110A"/>
    <path d="M -7.660664239302277 -5.138250404410065 L 6.539591423794627 -7.473818770051003 L 7.473818770051003 3.923754854276776 L -5.792209546789527 5.605364077538252 Z" fill="#3E2415"/>
  </g><g transform="translate(149.01 92.87) rotate(313.62)">
    <path d="M -16.095928790047765 -11.58906872883439 L 13.842498759441078 -16.095928790047765 L 16.095928790047765 11.267150153033434 L -12.876743032038213 14.486335911042989 Z" fill="#B07C36"/>
    <path d="M -13.198661607839167 -8.852760834526272 L 11.267150153033434 -12.876743032038213 L 12.876743032038213 6.760290091820061 L -9.979475849829614 9.657557274028658 Z" fill="#E9B86E"/>
  </g><g transform="translate(164.13 268.16) rotate(158.64)">
    <path d="M -10.55073625408113 -7.596530102938413 L 9.073633178509771 -10.55073625408113 L 10.55073625408113 7.38551537785679 L -8.440589003264904 9.495662628673017 Z" fill="#B07C36"/>
    <path d="M -8.651603728346526 -5.802904939744622 L 7.38551537785679 -8.440589003264904 L 8.440589003264904 4.431309226714075 L -6.541456477530301 6.330441752448678 Z" fill="#E9B86E"/>
  </g><g transform="translate(137.77 305.65) rotate(53.1)">
    <path d="M -13.024894999340177 -9.377924399524927 L 11.201409699432551 -13.024894999340177 L 13.024894999340177 9.117426499538123 L -10.419915999472142 11.72240549940616 Z" fill="#B07C36"/>
    <path d="M -10.680413899458944 -7.163692249637098 L 9.117426499538123 -10.419915999472142 L 10.419915999472142 5.470455899722874 L -8.07543489959091 7.814936999604106 Z" fill="#E9B86E"/>
  </g><g transform="translate(90.28 192.23) rotate(88.99)">
    <path d="M -10.888814009726048 -7.839946087002754 L 9.364380048364401 -10.888814009726048 L 10.888814009726048 7.622169806808233 L -8.711051207780839 9.799932608753442 Z" fill="#B07C36"/>
    <path d="M -8.928827487975358 -5.988847705349326 L 7.622169806808233 -8.711051207780839 L 8.711051207780839 4.57330188408494 L -6.7510646860301495 6.533288405835628 Z" fill="#E9B86E"/>
  </g><g transform="translate(260.13 155.36) rotate(78.71)">
    <path d="M -15.76929441653192 -11.353891979902983 L 13.561593198217452 -15.76929441653192 L 15.76929441653192 11.038506091572344 L -12.615435533225536 14.192364974878728 Z" fill="#22110A"/>
    <path d="M -12.930821421556175 -8.673111929092556 L 11.038506091572344 -12.615435533225536 L 12.615435533225536 6.623103654943407 L -9.77696253824979 9.461576649919152 Z" fill="#3E2415"/>
  </g><g transform="translate(146.48 70.58) rotate(208.41)">
    <path d="M -12.973349863663316 -9.340811901837586 L 11.157080882750451 -12.973349863663316 L 12.973349863663316 9.08134490456432 L -10.378679890930654 11.676014877296984 Z" fill="#B07C36"/>
    <path d="M -10.638146888203918 -7.135342425014824 L 9.08134490456432 -10.378679890930654 L 10.378679890930654 5.448806942738592 L -8.043476915471256 7.784009918197989 Z" fill="#E9B86E"/>
  </g><g transform="translate(266.46 122.4) rotate(347.61)">
    <path d="M -13.346616895869374 -9.60956416502595 L 11.47809053044766 -13.346616895869374 L 13.346616895869374 9.342631827108562 L -10.6772935166955 12.011955206282437 Z" fill="#B07C36"/>
    <path d="M -10.944225854612887 -7.340639292728157 L 9.342631827108562 -10.6772935166955 L 10.6772935166955 5.605579096265137 L -8.274902475439012 8.007970137521625 Z" fill="#E9B86E"/>
  </g><g transform="translate(165.52 92.04) rotate(76.94)">
    <path d="M -11.889266924932599 -8.56027218595147 L 10.224769555442036 -11.889266924932599 L 11.889266924932599 8.322486847452819 L -9.51141353994608 10.70034023243934 Z" fill="#22110A"/>
    <path d="M -9.74919887844473 -6.53909680871293 L 8.322486847452819 -9.51141353994608 L 9.51141353994608 4.993492108471691 L -7.371345493458211 7.133560154959559 Z" fill="#3E2415"/>
  </g><g transform="translate(225.19 291.17) rotate(60.74)">
    <path d="M -12.345738822594285 -8.888931952267885 L 10.617335387431085 -12.345738822594285 L 12.345738822594285 8.642017175816 L -9.876591058075428 11.111164940334858 Z" fill="#B07C36"/>
    <path d="M -10.123505834527313 -6.790156352426857 L 8.642017175816 -9.876591058075428 L 9.876591058075428 5.1852103054895995 L -7.654358070008457 7.407443293556571 Z" fill="#E9B86E"/>
  </g><g transform="translate(233.65 70.36) rotate(151.29)">
    <path d="M -9.907488258555532 -7.133391546159983 L 8.520439902357756 -9.907488258555532 L 9.907488258555532 6.935241780988871 L -7.925990606844426 8.916739432699979 Z" fill="#22110A"/>
    <path d="M -8.124140372015535 -5.449118542205543 L 6.935241780988871 -7.925990606844426 L 7.925990606844426 4.161145068593323 L -6.14264272030443 5.9444929551333185 Z" fill="#3E2415"/>
  </g><g transform="translate(305.69 245.89) rotate(258.15)">
    <path d="M -16.99173618108034 -12.234050050377846 L 14.612893115729094 -16.99173618108034 L 16.99173618108034 11.894215326756239 L -13.593388944864273 15.292562562972307 Z" fill="#B07C36"/>
    <path d="M -13.93322366848588 -9.345454899594188 L 11.894215326756239 -13.593388944864273 L 13.593388944864273 7.136529196053743 L -10.534876432269812 10.195041708648205 Z" fill="#E9B86E"/>
  </g><g transform="translate(93.97 121.26) rotate(43.32)">
    <path d="M -13.359788108617067 -9.619047438204289 L 11.489417773410677 -13.359788108617067 L 13.359788108617067 9.351851676031947 L -10.687830486893654 12.023809297755362 Z" fill="#B07C36"/>
    <path d="M -10.955026249065995 -7.347883459739387 L 9.351851676031947 -10.687830486893654 L 10.687830486893654 5.611111005619168 L -8.283068627342582 8.01587286517024 Z" fill="#E9B86E"/>
  </g><g transform="translate(289.06 120.32) rotate(321.32)">
    <path d="M -9.292078102007508 -6.690296233445406 L 7.991187167726457 -9.292078102007508 L 9.292078102007508 6.504454671405256 L -7.433662481606007 8.362870291806757 Z" fill="#22110A"/>
    <path d="M -7.619504043646156 -5.1106429561041296 L 6.504454671405256 -7.433662481606007 L 7.433662481606007 3.902672802843153 L -5.761088423244655 5.575246861204505 Z" fill="#3E2415"/>
  </g><g transform="translate(259.62 295.62) rotate(162.04)">
    <path d="M -12.05295137502253 -8.678124990016222 L 10.365538182519376 -12.05295137502253 L 12.05295137502253 8.43706596251577 L -9.642361100018025 10.847656237520278 Z" fill="#B07C36"/>
    <path d="M -9.883420127518475 -6.6291232562623925 L 8.43706596251577 -9.642361100018025 L 9.642361100018025 5.062239577509462 L -7.472829852513969 7.231770825013518 Z" fill="#E9B86E"/>
  </g><g transform="translate(139.25 129.44) rotate(296.41)">
    <path d="M -13.222544264048338 -9.520231870114802 L 11.37138806708157 -13.222544264048338 L 13.222544264048338 9.255780984833835 L -10.578035411238671 11.900289837643504 Z" fill="#22110A"/>
    <path d="M -10.842486296519636 -7.272399345226586 L 9.255780984833835 -10.578035411238671 L 10.578035411238671 5.553468590900302 L -8.19797744370997 7.933526558429002 Z" fill="#3E2415"/>
  </g><g transform="translate(325.51 235.88) rotate(320.14)">
    <path d="M -12.229534724727273 -8.805265001803637 L 10.517399863265455 -12.229534724727273 L 12.229534724727273 8.56067430730909 L -9.783627779781819 11.006581252254547 Z" fill="#B07C36"/>
    <path d="M -10.028218474276363 -6.7262440986000005 L 8.56067430730909 -9.783627779781819 L 9.783627779781819 5.136404584385454 L -7.58231152933091 7.337720834836364 Z" fill="#E9B86E"/>
  </g><g transform="translate(236.2 76.77) rotate(69.87)">
    <path d="M -10.58343974687159 -7.620076617747545 L 9.101758182309569 -10.58343974687159 L 10.58343974687159 7.408407822810113 L -8.466751797497272 9.525095772184432 Z" fill="#22110A"/>
    <path d="M -8.678420592434703 -5.820891860779375 L 7.408407822810113 -8.466751797497272 L 8.466751797497272 4.445044693686068 L -6.561732643060386 6.3500638481229545 Z" fill="#3E2415"/>
  </g><g transform="translate(248.94 274.01) rotate(1.74)">
    <path d="M -10.845241229981184 -7.8085736855864525 L 9.326907457783818 -10.845241229981184 L 10.845241229981184 7.591668860986828 L -8.676192983984947 9.760717106983066 Z" fill="#B07C36"/>
    <path d="M -8.89309780858457 -5.964882676489652 L 7.591668860986828 -8.676192983984947 L 8.676192983984947 4.555001316592097 L -6.724049562588334 6.50714473798871 Z" fill="#E9B86E"/>
  </g><g transform="translate(250.22 87.09) rotate(317.04)">
    <path d="M -12.58791540376842 -9.063299090713262 L 10.825607247240841 -12.58791540376842 L 12.58791540376842 8.811540782637893 L -10.070332323014737 11.329123863391578 Z" fill="#B07C36"/>
    <path d="M -10.322090631090104 -6.923353472072631 L 8.811540782637893 -10.070332323014737 L 10.070332323014737 5.286924469582736 L -7.80450755033642 7.552749242261052 Z" fill="#E9B86E"/>
  </g><g transform="translate(207.39 64.87) rotate(171.81)">
    <path d="M -12.242837812751532 -8.814843225181102 L 10.528840518966318 -12.242837812751532 L 12.242837812751532 8.569986468926071 L -9.794270250201226 11.018554031476379 Z" fill="#B07C36"/>
    <path d="M -10.039127006456255 -6.733560797013343 L 8.569986468926071 -9.794270250201226 L 9.794270250201226 5.141991881355643 L -7.590559443905949 7.345702687650919 Z" fill="#E9B86E"/>
  </g><g transform="translate(253.18 125.33) rotate(41.28)">
    <path d="M -12.284249005839229 -8.844659284204244 L 10.564454145021736 -12.284249005839229 L 12.284249005839229 8.59897430408746 L -9.827399204671384 11.055824105255306 Z" fill="#B07C36"/>
    <path d="M -10.073084184788167 -6.7563369532115765 L 8.59897430408746 -9.827399204671384 L 9.827399204671384 5.159384582452476 L -7.616234383620322 7.370549403503537 Z" fill="#E9B86E"/>
  </g>
  <path d="M 191.6 95.29 L 194.75 99.22 L 191.6 103.16 L 188.46 99.22 Z"
    fill="#FFFDF5" opacity=".92" transform="rotate(5.24 191.6 99.22)"/><path d="M 222.89 154.7 L 225.28 157.69 L 222.89 160.68 L 220.5 157.69 Z"
    fill="#FFFDF5" opacity=".92" transform="rotate(52.14 222.89 157.69)"/><path d="M 286.84 293.86 L 290.16 298.01 L 286.84 302.15 L 283.52 298.01 Z"
    fill="#FFFDF5" opacity=".92" transform="rotate(10.58 286.84 298.01)"/><path d="M 229.97 280.22 L 232.96 283.97 L 229.97 287.71 L 226.97 283.97 Z"
    fill="#FFFDF5" opacity=".92" transform="rotate(88.43 229.97 283.97)"/><path d="M 241.59 213.93 L 245.41 218.7 L 241.59 223.47 L 237.77 218.7 Z"
    fill="#FFFDF5" opacity=".92" transform="rotate(1.97 241.59 218.7)"/><path d="M 254.38 132.37 L 258.2 137.14 L 254.38 141.91 L 250.56 137.14 Z"
    fill="#FFFDF5" opacity=".92" transform="rotate(83.44 254.38 137.14)"/><path d="M 279.46 245.36 L 283.42 250.3 L 279.46 255.24 L 275.51 250.3 Z"
    fill="#FFFDF5" opacity=".92" transform="rotate(59.7 279.46 250.3)"/><path d="M 132.88 178.38 L 135.26 181.36 L 132.88 184.34 L 130.49 181.36 Z"
    fill="#FFFDF5" opacity=".92" transform="rotate(77.24 132.88 181.36)"/><path d="M 127.76 101.04 L 131.44 105.65 L 127.76 110.25 L 124.08 105.65 Z"
    fill="#FFFDF5" opacity=".92" transform="rotate(83.99 127.76 105.65)"/><path d="M 238.93 246.19 L 242.01 250.05 L 238.93 253.9 L 235.84 250.05 Z"
    fill="#FFFDF5" opacity=".92" transform="rotate(81.02 238.93 250.05)"/><path d="M 284.99 96.79 L 288.19 100.8 L 284.99 104.81 L 281.78 100.8 Z"
    fill="#FFFDF5" opacity=".92" transform="rotate(2.83 284.99 100.8)"/><path d="M 242.78 287.12 L 246.45 291.7 L 242.78 296.28 L 239.12 291.7 Z"
    fill="#FFFDF5" opacity=".92" transform="rotate(76.68 242.78 291.7)"/><path d="M 209.09 235.92 L 213.09 240.92 L 209.09 245.91 L 205.1 240.92 Z"
    fill="#FFFDF5" opacity=".92" transform="rotate(84.99 209.09 240.92)"/><path d="M 267.96 135.24 L 270.14 137.97 L 267.96 140.69 L 265.78 137.97 Z"
    fill="#FFFDF5" opacity=".92" transform="rotate(54.63 267.96 137.97)"/>
</svg>