<svg xmlns="http://www.w3.org/2000/svg" viewBox="0 0 400 400" role="img">
  <defs><filter id="mugShadow" x="-30%" y="-30%" width="160%" height="160%"><feGaussianBlur stdDeviation="10"/></filter></defs>
  <ellipse cx="205" cy="330" rx="112" ry="20" fill="#000" opacity=".5" filter="url(#mugShadow)"/>
  <path d="M 292 154 h 20 a 50 50 0 0 1 0 100 h -20" fill="none" stroke="#15110E" stroke-width="27"/>
  <path d="M 292 154 h 20 a 50 50 0 0 1 0 100 h -20" fill="none" stroke="#6D625A" stroke-width="3" opacity=".5"/>
  <path d="M 98 120 H 296 V 290 A 99 27 0 0 1 98 290 Z" fill="#15110E"/>
  <path d="M 98 120 H 138 V 293 A 99 27 0 0 1 98 290 Z" fill="#fff" opacity=".09"/>
  <path d="M 284 120 H 296 V 290 A 99 27 0 0 1 282 296 Z" fill="#6D625A" opacity=".35"/>
  <ellipse cx="197" cy="120" rx="99" ry="27" fill="#241D18"/>
  <ellipse cx="197" cy="120" rx="99" ry="27" fill="none" stroke="#6D625A" stroke-width="2" opacity=".6"/>
  <ellipse cx="197" cy="121" rx="82" ry="21" fill="#1B1410"/>
  <ellipse cx="197" cy="124" rx="76" ry="18" fill="#3E2617"/>
  <g transform="translate(197 216)">
    <circle r="52" fill="none" stroke="#F2B705" stroke-width="3"/>
    <circle r="43" fill="none" stroke="#F2B705" stroke-width="1.4" stroke-dasharray="6 5"/>
    <text y="-8" text-anchor="middle" font-family="Impact, Haettenschweiler, 'Arial Narrow', 'DejaVu Sans Condensed', sans-serif" font-size="21" fill="#F2B705" letter-spacing="1">COOKIE</text>
    <text y="14" text-anchor="middle" font-family="Impact, Haettenschweiler, 'Arial Narrow', 'DejaVu Sans Condensed', sans-serif" font-size="21" fill="#F2B705" letter-spacing="1">CARTEL</text>
    <text y="32" text-anchor="middle" font-family="'DejaVu Sans Condensed', 'Arial Narrow', Verdana, sans-serif" font-size="8" fill="#F2B705" letter-spacing="2">EST. 2020</text>
  </g>
</svg>
