<svg xmlns="http://www.w3.org/2000/svg" viewBox="0 0 400 400" role="img">
  <defs>
    <filter id="capShadow" x="-30%" y="-30%" width="160%" height="160%"><feGaussianBlur stdDeviation="10"/></filter>
    <pattern id="mesh" width="9" height="9" patternUnits="userSpaceOnUse">
      <rect width="9" height="9" fill="#F4EFE6"/>
      <path d="M 0 0 H 9 M 0 0 V 9" stroke="#D5CCBC" stroke-width="1"/>
    </pattern>
  </defs>
  <ellipse cx="206" cy="300" rx="140" ry="18" fill="#000" opacity=".45" filter="url(#capShadow)"/>
  <!-- crown, seen from the side -->
  <path d="M 62 254 C 62 160 104 112 176 112 C 248 112 286 162 288 254 Z" fill="url(#mesh)"/>
  <path d="M 176 112 C 232 112 272 160 276 254 L 176 254 Z" fill="#E6DECE" opacity=".75"/>
  <path d="M 176 112 C 120 112 78 162 74 254 L 176 254 Z" fill="#FFFFFF" opacity=".45"/>
  <path d="M 176 112 C 150 118 134 168 132 254" stroke="#D5CCBC" stroke-width="2.5" fill="none" opacity=".8"/>
  <path d="M 176 112 C 202 118 220 168 222 254" stroke="#D5CCBC" stroke-width="2.5" fill="none" opacity=".8"/>
  <circle cx="176" cy="108" r="9" fill="#EDE6D6"/>
  <!-- brim, projecting forward -->
  <path d="M 268 244 C 312 240 356 254 366 274 C 372 288 348 296 312 294
           C 282 292 266 278 264 258 Z" fill="#E4DCCB"/>
  <path d="M 268 244 C 312 240 356 254 366 274 C 356 262 314 252 266 256 Z" fill="#FFFFFF" opacity=".55"/>
  <path d="M 62 250 C 120 240 230 240 280 250 L 280 262 C 230 252 120 252 62 262 Z" fill="#0B0906" opacity=".13"/>
  <g transform="translate(168 190)">
    <circle r="46" fill="#0B0906"/>
    <circle r="46" fill="none" stroke="#F2B705" stroke-width="3"/>
    <text y="-4" text-anchor="middle" font-family="Impact, Haettenschweiler, 'Arial Narrow', 'DejaVu Sans Condensed', sans-serif" font-size="20" fill="#F2B705" letter-spacing="1">EL JEFE</text>
    <text y="16" text-anchor="middle" font-family="'DejaVu Sans Condensed', 'Arial Narrow', Verdana, sans-serif" font-size="7.5" fill="#F8EFDD" letter-spacing="1.4">COOKIE CARTEL</text>
  </g>
</svg>
